{
	"asset":{
		"generator":"Khronos glTF Blender I/O v5.0.21",
		"version":"2.0"
	},
	"extensionsUsed":[
		"KHR_materials_specular"
	],
	"scene":0,
	"scenes":[
		{
			"name":"Scene",
			"nodes":[
				47
			]
		}
	],
	"nodes":[
		{
			"name":"Bone.020.L",
			"rotation":[
				-0.18825790286064148,
				-0.10634595155715942,
				0.0605444572865963,
				0.9744659662246704
			],
			"scale":[
				0.9999998807907104,
				1,
				1
			],
			"translation":[
				1.862645149230957e-07,
				0.05357512831687927,
				5.960464477539063e-08
			]
		},
		{
			"children":[
				0
			],
			"name":"Bone.019.L",
			"rotation":[
				-0.07573556900024414,
				-0.2198997139930725,
				0.02618386410176754,
				0.9722256064414978
			],
			"scale":[
				0.9999999403953552,
				1,
				1
			],
			"translation":[
				7.450580596923828e-08,
				0.16254892945289612,
				-1.4156103134155273e-07
			]
		},
		{
			"children":[
				1
			],
			"name":"Bone.006.L",
			"rotation":[
				0.4215596914291382,
				0.17415665090084076,
				-0.11702045053243637,
				0.8821922540664673
			],
			"scale":[
				0.9999998807907104,
				1,
				0.9999999403953552
			],
			"translation":[
				-0.034643590450286865,
				0.699791669845581,
				-7.620101882821473e-09
			]
		},
		{
			"name":"Bone.018.L",
			"rotation":[
				-0.004166844300925732,
				-0.03023306280374527,
				-0.058290641754865646,
				0.9978330731391907
			],
			"scale":[
				0.9999999403953552,
				1,
				1
			],
			"translation":[
				1.3690441846847534e-07,
				0.07375967502593994,
				-1.4901161193847656e-08
			]
		},
		{
			"children":[
				3
			],
			"name":"Bone.017.L",
			"rotation":[
				-0.17051786184310913,
				-0.15064045786857605,
				0.04405698552727699,
				0.9727744460105896
			],
			"scale":[
				1,
				1.0000001192092896,
				1.000000238418579
			],
			"translation":[
				4.563480615615845e-08,
				0.17242489755153656,
				-7.82310962677002e-08
			]
		},
		{
			"children":[
				4
			],
			"name":"Bone.007.L",
			"rotation":[
				0.17365215718746185,
				0.06895037740468979,
				-0.03051535226404667,
				0.9819163084030151
			],
			"scale":[
				0.9999998807907104,
				0.9999998211860657,
				0.9999999403953552
			],
			"translation":[
				-0.034643590450286865,
				0.699791669845581,
				-7.620101882821473e-09
			]
		},
		{
			"name":"Bone.016.L",
			"rotation":[
				0.007981622591614723,
				-0.02697804570198059,
				-0.01897226646542549,
				0.9994240999221802
			],
			"scale":[
				1,
				1,
				0.9999999403953552
			],
			"translation":[
				-1.0714575182646513e-07,
				0.06371740251779556,
				5.820766091346741e-09
			]
		},
		{
			"children":[
				6
			],
			"name":"Bone.015.L",
			"rotation":[
				-0.010065780021250248,
				-0.006693234667181969,
				-0.031293079257011414,
				0.999437153339386
			],
			"scale":[
				1.0000001192092896,
				0.9999999403953552,
				1.0000001192092896
			],
			"translation":[
				8.354845704161562e-09,
				0.17464697360992432,
				-4.656612873077393e-10
			]
		},
		{
			"children":[
				7
			],
			"name":"Bone.008.L",
			"rotation":[
				-0.002703051082789898,
				-0.001089450903236866,
				-0.019139258190989494,
				0.9998126029968262
			],
			"scale":[
				0.9999998211860657,
				0.9999998211860657,
				1
			],
			"translation":[
				-0.034643590450286865,
				0.699791669845581,
				-7.620101882821473e-09
			]
		},
		{
			"name":"Bone.014.L",
			"rotation":[
				0.09554029256105423,
				0.030304238200187683,
				-0.0020200409926474094,
				0.9949621558189392
			],
			"scale":[
				0.9999998211860657,
				1,
				0.9999998807907104
			],
			"translation":[
				-1.3969838619232178e-07,
				0.061604760587215424,
				1.1175870895385742e-08
			]
		},
		{
			"children":[
				9
			],
			"name":"Bone.012.L",
			"rotation":[
				0.11558171361684799,
				0.10878193378448486,
				-0.04316515102982521,
				0.9863793253898621
			],
			"scale":[
				1,
				1.0000001192092896,
				1.000000238418579
			],
			"translation":[
				1.30385160446167e-07,
				0.18201597034931183,
				-5.587935447692871e-08
			]
		},
		{
			"children":[
				10
			],
			"name":"Bone.009.L",
			"rotation":[
				-0.17092476785182953,
				-0.06051461026072502,
				-0.013587813824415207,
				0.9833301305770874
			],
			"scale":[
				0.9999998807907104,
				1,
				1
			],
			"translation":[
				-0.034643590450286865,
				0.699791669845581,
				-7.620101882821473e-09
			]
		},
		{
			"name":"Bone.013.L",
			"rotation":[
				0.034137073904275894,
				0.0025451064575463533,
				-0.06327353417873383,
				0.9974089860916138
			],
			"scale":[
				0.9999998807907104,
				1,
				1
			],
			"translation":[
				9.872019290924072e-08,
				0.06890866160392761,
				5.21540641784668e-08
			]
		},
		{
			"children":[
				12
			],
			"name":"Bone.011.L",
			"rotation":[
				0.21374791860580444,
				0.1785554736852646,
				0.02625448629260063,
				0.9600731730461121
			],
			"scale":[
				0.9999999403953552,
				0.9999999403953552,
				1
			],
			"translation":[
				3.948807716369629e-07,
				0.18958061933517456,
				-9.685754776000977e-08
			]
		},
		{
			"children":[
				13
			],
			"name":"Bone.010.L",
			"rotation":[
				-0.32316604256629944,
				-0.09722523391246796,
				-0.027580244466662407,
				0.9409305453300476
			],
			"scale":[
				0.9999998807907104,
				0.9999999403953552,
				0.9999999403953552
			],
			"translation":[
				-0.034643590450286865,
				0.699791669845581,
				-7.620101882821473e-09
			]
		},
		{
			"children":[
				2,
				5,
				8,
				11,
				14
			],
			"name":"Bone.004.L",
			"rotation":[
				1.9894637048878394e-09,
				3.4297710271857795e-07,
				0.016165871173143387,
				0.9998693466186523
			],
			"scale":[
				1,
				0.9999998807907104,
				1
			],
			"translation":[
				2.0861624250301247e-07,
				0.38401085138320923,
				-1.0658141036401503e-14
			]
		},
		{
			"children":[
				15
			],
			"name":"Bone.003.L",
			"rotation":[
				-7.736743867781115e-08,
				1.799197235641259e-07,
				-0.11952172219753265,
				0.9928315877914429
			],
			"translation":[
				0.008445695042610168,
				0.27682316303253174,
				-6.997716184287128e-09
			]
		},
		{
			"children":[
				16
			],
			"name":"Bone.002.L",
			"rotation":[
				-2.992302370330435e-07,
				-1.846157005047644e-07,
				-0.8160484433174133,
				0.577983558177948
			],
			"scale":[
				0.9999998211860657,
				0.9999998807907104,
				1
			],
			"translation":[
				0.16121432185173035,
				0.6809638738632202,
				7.776928434566344e-09
			]
		},
		{
			"name":"Bone.021",
			"translation":[
				0,
				0.13674116134643555,
				0
			]
		},
		{
			"children":[
				18
			],
			"name":"Bone.005",
			"translation":[
				0,
				0.7532187700271606,
				0
			]
		},
		{
			"name":"Bone.020.R",
			"rotation":[
				-0.18825790286064148,
				0.10634595155715942,
				-0.0605444572865963,
				0.9744659662246704
			],
			"scale":[
				0.9999998807907104,
				1,
				1
			],
			"translation":[
				-1.862645149230957e-07,
				0.05357512831687927,
				5.960464477539063e-08
			]
		},
		{
			"children":[
				20
			],
			"name":"Bone.019.R",
			"rotation":[
				-0.07573556900024414,
				0.2198997139930725,
				-0.02618386410176754,
				0.9722256064414978
			],
			"scale":[
				0.9999999403953552,
				1,
				1
			],
			"translation":[
				-7.450580596923828e-08,
				0.16254892945289612,
				-1.4156103134155273e-07
			]
		},
		{
			"children":[
				21
			],
			"name":"Bone.006.R",
			"rotation":[
				0.4215596914291382,
				-0.17415665090084076,
				0.11702045053243637,
				0.8821922540664673
			],
			"scale":[
				0.9999998807907104,
				1,
				0.9999999403953552
			],
			"translation":[
				0.034643590450286865,
				0.699791669845581,
				-7.620101882821473e-09
			]
		},
		{
			"name":"Bone.018.R",
			"rotation":[
				-0.004166844300925732,
				0.03023306280374527,
				0.058290641754865646,
				0.9978330731391907
			],
			"scale":[
				0.9999999403953552,
				1,
				1
			],
			"translation":[
				-1.3690441846847534e-07,
				0.07375967502593994,
				-1.4901161193847656e-08
			]
		},
		{
			"children":[
				23
			],
			"name":"Bone.017.R",
			"rotation":[
				-0.17051786184310913,
				0.15064045786857605,
				-0.04405698552727699,
				0.9727744460105896
			],
			"scale":[
				1,
				1.0000001192092896,
				1.000000238418579
			],
			"translation":[
				-4.563480615615845e-08,
				0.17242489755153656,
				-7.82310962677002e-08
			]
		},
		{
			"children":[
				24
			],
			"name":"Bone.007.R",
			"rotation":[
				0.17365215718746185,
				-0.06895037740468979,
				0.03051535226404667,
				0.9819163084030151
			],
			"scale":[
				0.9999998807907104,
				0.9999998211860657,
				0.9999999403953552
			],
			"translation":[
				0.034643590450286865,
				0.699791669845581,
				-7.620101882821473e-09
			]
		},
		{
			"name":"Bone.016.R",
			"rotation":[
				0.007981622591614723,
				0.02697804570198059,
				0.01897226646542549,
				0.9994240999221802
			],
			"scale":[
				1,
				1,
				0.9999999403953552
			],
			"translation":[
				1.0714575182646513e-07,
				0.06371740251779556,
				5.820766091346741e-09
			]
		},
		{
			"children":[
				26
			],
			"name":"Bone.015.R",
			"rotation":[
				-0.010065780021250248,
				0.006693234667181969,
				0.031293079257011414,
				0.999437153339386
			],
			"scale":[
				1.0000001192092896,
				0.9999999403953552,
				1.0000001192092896
			],
			"translation":[
				-8.354845704161562e-09,
				0.17464697360992432,
				-4.656612873077393e-10
			]
		},
		{
			"children":[
				27
			],
			"name":"Bone.008.R",
			"rotation":[
				-0.002703051082789898,
				0.001089450903236866,
				0.019139258190989494,
				0.9998126029968262
			],
			"scale":[
				0.9999998211860657,
				0.9999998211860657,
				1
			],
			"translation":[
				0.034643590450286865,
				0.699791669845581,
				-7.620101882821473e-09
			]
		},
		{
			"name":"Bone.014.R",
			"rotation":[
				0.09554029256105423,
				-0.030304238200187683,
				0.0020200409926474094,
				0.9949621558189392
			],
			"scale":[
				0.9999998211860657,
				1,
				0.9999998807907104
			],
			"translation":[
				1.3969838619232178e-07,
				0.061604760587215424,
				1.1175870895385742e-08
			]
		},
		{
			"children":[
				29
			],
			"name":"Bone.012.R",
			"rotation":[
				0.11558171361684799,
				-0.10878193378448486,
				0.04316515102982521,
				0.9863793253898621
			],
			"scale":[
				1,
				1.0000001192092896,
				1.000000238418579
			],
			"translation":[
				-1.30385160446167e-07,
				0.18201597034931183,
				-5.587935447692871e-08
			]
		},
		{
			"children":[
				30
			],
			"name":"Bone.009.R",
			"rotation":[
				-0.17092476785182953,
				0.06051461026072502,
				0.013587813824415207,
				0.9833301305770874
			],
			"scale":[
				0.9999998807907104,
				1,
				1
			],
			"translation":[
				0.034643590450286865,
				0.699791669845581,
				-7.620101882821473e-09
			]
		},
		{
			"name":"Bone.013.R",
			"rotation":[
				0.034137073904275894,
				-0.0025451064575463533,
				0.06327353417873383,
				0.9974089860916138
			],
			"scale":[
				0.9999998807907104,
				1,
				1
			],
			"translation":[
				-9.872019290924072e-08,
				0.06890866160392761,
				5.21540641784668e-08
			]
		},
		{
			"children":[
				32
			],
			"name":"Bone.011.R",
			"rotation":[
				0.21374791860580444,
				-0.1785554736852646,
				-0.02625448629260063,
				0.9600731730461121
			],
			"scale":[
				0.9999999403953552,
				0.9999999403953552,
				1
			],
			"translation":[
				-3.948807716369629e-07,
				0.18958061933517456,
				-9.685754776000977e-08
			]
		},
		{
			"children":[
				33
			],
			"name":"Bone.010.R",
			"rotation":[
				-0.32316604256629944,
				0.09722523391246796,
				0.027580244466662407,
				0.9409305453300476
			],
			"scale":[
				0.9999998807907104,
				0.9999999403953552,
				0.9999999403953552
			],
			"translation":[
				0.034643590450286865,
				0.699791669845581,
				-7.620101882821473e-09
			]
		},
		{
			"children":[
				22,
				25,
				28,
				31,
				34
			],
			"name":"Bone.004.R",
			"rotation":[
				1.9894637048878394e-09,
				-3.4297710271857795e-07,
				-0.016165871173143387,
				0.9998693466186523
			],
			"scale":[
				1,
				0.9999998807907104,
				1
			],
			"translation":[
				-2.0861624250301247e-07,
				0.38401085138320923,
				-1.0658141036401503e-14
			]
		},
		{
			"children":[
				35
			],
			"name":"Bone.003.R",
			"rotation":[
				-7.736743867781115e-08,
				-1.799197235641259e-07,
				0.11952172219753265,
				0.9928315877914429
			],
			"translation":[
				-0.008445695042610168,
				0.27682316303253174,
				-6.997716184287128e-09
			]
		},
		{
			"children":[
				36
			],
			"name":"Bone.002.R",
			"rotation":[
				-2.992302370330435e-07,
				1.846157005047644e-07,
				0.8160484433174133,
				0.577983558177948
			],
			"scale":[
				0.9999998211860657,
				0.9999998807907104,
				1
			],
			"translation":[
				-0.16121432185173035,
				0.6809638738632202,
				7.776928434566344e-09
			]
		},
		{
			"children":[
				17,
				19,
				37
			],
			"name":"Bone",
			"translation":[
				0,
				1.7316765785217285,
				0
			]
		},
		{
			"name":"Bone.027.L",
			"rotation":[
				0.003943357616662979,
				-0.003982922062277794,
				0.7102735638618469,
				0.7039034366607666
			],
			"scale":[
				0.9999998807907104,
				0.9999998807907104,
				1
			],
			"translation":[
				-3.3057482085041556e-08,
				0.7662131190299988,
				0.001693836529739201
			]
		},
		{
			"children":[
				39
			],
			"name":"Bone.025.L",
			"rotation":[
				-0.012933697551488876,
				7.792274914208974e-08,
				-1.0744478373680977e-07,
				0.9999163746833801
			],
			"translation":[
				-4.0190073491430667e-14,
				0.6617414355278015,
				-5.587400764284212e-09
			]
		},
		{
			"children":[
				40
			],
			"name":"Bone.024.L",
			"rotation":[
				-0.0006233357707969844,
				-6.173628719352564e-08,
				-1.647533082183017e-10,
				0.9999998211860657
			],
			"translation":[
				1.3633209619001718e-06,
				0.2449316829442978,
				-0.24858301877975464
			]
		},
		{
			"name":"Bone.027.R",
			"rotation":[
				0.003943339455872774,
				0.003982905764132738,
				-0.7102735638618469,
				0.7039034366607666
			],
			"scale":[
				0.9999998807907104,
				0.9999998807907104,
				1
			],
			"translation":[
				3.305756735016985e-08,
				0.7662131190299988,
				0.001693836529739201
			]
		},
		{
			"children":[
				42
			],
			"name":"Bone.025.R",
			"rotation":[
				-0.012933693826198578,
				-7.439118121510546e-08,
				1.0749052137271065e-07,
				0.9999163746833801
			],
			"translation":[
				6.772360450213455e-14,
				0.6617414355278015,
				4.657148444664472e-09
			]
		},
		{
			"children":[
				43
			],
			"name":"Bone.024.R",
			"rotation":[
				-2.2602479887723348e-09,
				0.9998832941055298,
				-0.015275788493454456,
				5.3200860747892875e-06
			],
			"scale":[
				1,
				1.0000001192092896,
				1.0000001192092896
			],
			"translation":[
				-1.2683516388278804e-06,
				0.25271132588386536,
				0.24066996574401855
			]
		},
		{
			"children":[
				41,
				44
			],
			"name":"Bone.001.R",
			"rotation":[
				-0.7070863246917725,
				0.0056213256902992725,
				0.7070825099945068,
				0.005621348973363638
			],
			"translation":[
				0,
				1.7316765785217285,
				0
			]
		},
		{
			"mesh":0,
			"name":"\u0e40\u0e2a\u0e37\u0e49\u0e2d..005",
			"skin":0
		},
		{
			"children":[
				46,
				38,
				45
			],
			"name":"alpla armature.008"
		}
	],
	"animations":[
		{
			"channels":[
				{
					"sampler":0,
					"target":{
						"node":38,
						"path":"translation"
					}
				},
				{
					"sampler":1,
					"target":{
						"node":38,
						"path":"rotation"
					}
				},
				{
					"sampler":2,
					"target":{
						"node":38,
						"path":"scale"
					}
				},
				{
					"sampler":3,
					"target":{
						"node":17,
						"path":"translation"
					}
				},
				{
					"sampler":4,
					"target":{
						"node":17,
						"path":"rotation"
					}
				},
				{
					"sampler":5,
					"target":{
						"node":17,
						"path":"scale"
					}
				},
				{
					"sampler":6,
					"target":{
						"node":16,
						"path":"translation"
					}
				},
				{
					"sampler":7,
					"target":{
						"node":16,
						"path":"rotation"
					}
				},
				{
					"sampler":8,
					"target":{
						"node":16,
						"path":"scale"
					}
				},
				{
					"sampler":9,
					"target":{
						"node":15,
						"path":"translation"
					}
				},
				{
					"sampler":10,
					"target":{
						"node":15,
						"path":"rotation"
					}
				},
				{
					"sampler":11,
					"target":{
						"node":15,
						"path":"scale"
					}
				},
				{
					"sampler":12,
					"target":{
						"node":2,
						"path":"translation"
					}
				},
				{
					"sampler":13,
					"target":{
						"node":2,
						"path":"rotation"
					}
				},
				{
					"sampler":14,
					"target":{
						"node":2,
						"path":"scale"
					}
				},
				{
					"sampler":15,
					"target":{
						"node":1,
						"path":"translation"
					}
				},
				{
					"sampler":16,
					"target":{
						"node":1,
						"path":"rotation"
					}
				},
				{
					"sampler":17,
					"target":{
						"node":1,
						"path":"scale"
					}
				},
				{
					"sampler":18,
					"target":{
						"node":0,
						"path":"translation"
					}
				},
				{
					"sampler":19,
					"target":{
						"node":0,
						"path":"rotation"
					}
				},
				{
					"sampler":20,
					"target":{
						"node":0,
						"path":"scale"
					}
				},
				{
					"sampler":21,
					"target":{
						"node":5,
						"path":"translation"
					}
				},
				{
					"sampler":22,
					"target":{
						"node":5,
						"path":"rotation"
					}
				},
				{
					"sampler":23,
					"target":{
						"node":5,
						"path":"scale"
					}
				},
				{
					"sampler":24,
					"target":{
						"node":4,
						"path":"translation"
					}
				},
				{
					"sampler":25,
					"target":{
						"node":4,
						"path":"rotation"
					}
				},
				{
					"sampler":26,
					"target":{
						"node":4,
						"path":"scale"
					}
				},
				{
					"sampler":27,
					"target":{
						"node":3,
						"path":"translation"
					}
				},
				{
					"sampler":28,
					"target":{
						"node":3,
						"path":"rotation"
					}
				},
				{
					"sampler":29,
					"target":{
						"node":3,
						"path":"scale"
					}
				},
				{
					"sampler":30,
					"target":{
						"node":8,
						"path":"translation"
					}
				},
				{
					"sampler":31,
					"target":{
						"node":8,
						"path":"rotation"
					}
				},
				{
					"sampler":32,
					"target":{
						"node":8,
						"path":"scale"
					}
				},
				{
					"sampler":33,
					"target":{
						"node":7,
						"path":"translation"
					}
				},
				{
					"sampler":34,
					"target":{
						"node":7,
						"path":"rotation"
					}
				},
				{
					"sampler":35,
					"target":{
						"node":7,
						"path":"scale"
					}
				},
				{
					"sampler":36,
					"target":{
						"node":6,
						"path":"translation"
					}
				},
				{
					"sampler":37,
					"target":{
						"node":6,
						"path":"rotation"
					}
				},
				{
					"sampler":38,
					"target":{
						"node":6,
						"path":"scale"
					}
				},
				{
					"sampler":39,
					"target":{
						"node":11,
						"path":"translation"
					}
				},
				{
					"sampler":40,
					"target":{
						"node":11,
						"path":"rotation"
					}
				},
				{
					"sampler":41,
					"target":{
						"node":11,
						"path":"scale"
					}
				},
				{
					"sampler":42,
					"target":{
						"node":10,
						"path":"translation"
					}
				},
				{
					"sampler":43,
					"target":{
						"node":10,
						"path":"rotation"
					}
				},
				{
					"sampler":44,
					"target":{
						"node":10,
						"path":"scale"
					}
				},
				{
					"sampler":45,
					"target":{
						"node":9,
						"path":"translation"
					}
				},
				{
					"sampler":46,
					"target":{
						"node":9,
						"path":"rotation"
					}
				},
				{
					"sampler":47,
					"target":{
						"node":9,
						"path":"scale"
					}
				},
				{
					"sampler":48,
					"target":{
						"node":14,
						"path":"translation"
					}
				},
				{
					"sampler":49,
					"target":{
						"node":14,
						"path":"rotation"
					}
				},
				{
					"sampler":50,
					"target":{
						"node":14,
						"path":"scale"
					}
				},
				{
					"sampler":51,
					"target":{
						"node":13,
						"path":"translation"
					}
				},
				{
					"sampler":52,
					"target":{
						"node":13,
						"path":"rotation"
					}
				},
				{
					"sampler":53,
					"target":{
						"node":13,
						"path":"scale"
					}
				},
				{
					"sampler":54,
					"target":{
						"node":12,
						"path":"translation"
					}
				},
				{
					"sampler":55,
					"target":{
						"node":12,
						"path":"rotation"
					}
				},
				{
					"sampler":56,
					"target":{
						"node":12,
						"path":"scale"
					}
				},
				{
					"sampler":57,
					"target":{
						"node":19,
						"path":"translation"
					}
				},
				{
					"sampler":58,
					"target":{
						"node":19,
						"path":"rotation"
					}
				},
				{
					"sampler":59,
					"target":{
						"node":19,
						"path":"scale"
					}
				},
				{
					"sampler":60,
					"target":{
						"node":18,
						"path":"translation"
					}
				},
				{
					"sampler":61,
					"target":{
						"node":18,
						"path":"rotation"
					}
				},
				{
					"sampler":62,
					"target":{
						"node":18,
						"path":"scale"
					}
				},
				{
					"sampler":63,
					"target":{
						"node":37,
						"path":"translation"
					}
				},
				{
					"sampler":64,
					"target":{
						"node":37,
						"path":"rotation"
					}
				},
				{
					"sampler":65,
					"target":{
						"node":37,
						"path":"scale"
					}
				},
				{
					"sampler":66,
					"target":{
						"node":36,
						"path":"translation"
					}
				},
				{
					"sampler":67,
					"target":{
						"node":36,
						"path":"rotation"
					}
				},
				{
					"sampler":68,
					"target":{
						"node":36,
						"path":"scale"
					}
				},
				{
					"sampler":69,
					"target":{
						"node":35,
						"path":"translation"
					}
				},
				{
					"sampler":70,
					"target":{
						"node":35,
						"path":"rotation"
					}
				},
				{
					"sampler":71,
					"target":{
						"node":35,
						"path":"scale"
					}
				},
				{
					"sampler":72,
					"target":{
						"node":22,
						"path":"translation"
					}
				},
				{
					"sampler":73,
					"target":{
						"node":22,
						"path":"rotation"
					}
				},
				{
					"sampler":74,
					"target":{
						"node":22,
						"path":"scale"
					}
				},
				{
					"sampler":75,
					"target":{
						"node":21,
						"path":"translation"
					}
				},
				{
					"sampler":76,
					"target":{
						"node":21,
						"path":"rotation"
					}
				},
				{
					"sampler":77,
					"target":{
						"node":21,
						"path":"scale"
					}
				},
				{
					"sampler":78,
					"target":{
						"node":20,
						"path":"translation"
					}
				},
				{
					"sampler":79,
					"target":{
						"node":20,
						"path":"rotation"
					}
				},
				{
					"sampler":80,
					"target":{
						"node":20,
						"path":"scale"
					}
				},
				{
					"sampler":81,
					"target":{
						"node":25,
						"path":"translation"
					}
				},
				{
					"sampler":82,
					"target":{
						"node":25,
						"path":"rotation"
					}
				},
				{
					"sampler":83,
					"target":{
						"node":25,
						"path":"scale"
					}
				},
				{
					"sampler":84,
					"target":{
						"node":24,
						"path":"translation"
					}
				},
				{
					"sampler":85,
					"target":{
						"node":24,
						"path":"rotation"
					}
				},
				{
					"sampler":86,
					"target":{
						"node":24,
						"path":"scale"
					}
				},
				{
					"sampler":87,
					"target":{
						"node":23,
						"path":"translation"
					}
				},
				{
					"sampler":88,
					"target":{
						"node":23,
						"path":"rotation"
					}
				},
				{
					"sampler":89,
					"target":{
						"node":23,
						"path":"scale"
					}
				},
				{
					"sampler":90,
					"target":{
						"node":28,
						"path":"translation"
					}
				},
				{
					"sampler":91,
					"target":{
						"node":28,
						"path":"rotation"
					}
				},
				{
					"sampler":92,
					"target":{
						"node":28,
						"path":"scale"
					}
				},
				{
					"sampler":93,
					"target":{
						"node":27,
						"path":"translation"
					}
				},
				{
					"sampler":94,
					"target":{
						"node":27,
						"path":"rotation"
					}
				},
				{
					"sampler":95,
					"target":{
						"node":27,
						"path":"scale"
					}
				},
				{
					"sampler":96,
					"target":{
						"node":26,
						"path":"translation"
					}
				},
				{
					"sampler":97,
					"target":{
						"node":26,
						"path":"rotation"
					}
				},
				{
					"sampler":98,
					"target":{
						"node":26,
						"path":"scale"
					}
				},
				{
					"sampler":99,
					"target":{
						"node":31,
						"path":"translation"
					}
				},
				{
					"sampler":100,
					"target":{
						"node":31,
						"path":"rotation"
					}
				},
				{
					"sampler":101,
					"target":{
						"node":31,
						"path":"scale"
					}
				},
				{
					"sampler":102,
					"target":{
						"node":30,
						"path":"translation"
					}
				},
				{
					"sampler":103,
					"target":{
						"node":30,
						"path":"rotation"
					}
				},
				{
					"sampler":104,
					"target":{
						"node":30,
						"path":"scale"
					}
				},
				{
					"sampler":105,
					"target":{
						"node":29,
						"path":"translation"
					}
				},
				{
					"sampler":106,
					"target":{
						"node":29,
						"path":"rotation"
					}
				},
				{
					"sampler":107,
					"target":{
						"node":29,
						"path":"scale"
					}
				},
				{
					"sampler":108,
					"target":{
						"node":34,
						"path":"translation"
					}
				},
				{
					"sampler":109,
					"target":{
						"node":34,
						"path":"rotation"
					}
				},
				{
					"sampler":110,
					"target":{
						"node":34,
						"path":"scale"
					}
				},
				{
					"sampler":111,
					"target":{
						"node":33,
						"path":"translation"
					}
				},
				{
					"sampler":112,
					"target":{
						"node":33,
						"path":"rotation"
					}
				},
				{
					"sampler":113,
					"target":{
						"node":33,
						"path":"scale"
					}
				},
				{
					"sampler":114,
					"target":{
						"node":32,
						"path":"translation"
					}
				},
				{
					"sampler":115,
					"target":{
						"node":32,
						"path":"rotation"
					}
				},
				{
					"sampler":116,
					"target":{
						"node":32,
						"path":"scale"
					}
				},
				{
					"sampler":117,
					"target":{
						"node":45,
						"path":"translation"
					}
				},
				{
					"sampler":118,
					"target":{
						"node":45,
						"path":"rotation"
					}
				},
				{
					"sampler":119,
					"target":{
						"node":45,
						"path":"scale"
					}
				},
				{
					"sampler":120,
					"target":{
						"node":41,
						"path":"translation"
					}
				},
				{
					"sampler":121,
					"target":{
						"node":41,
						"path":"rotation"
					}
				},
				{
					"sampler":122,
					"target":{
						"node":41,
						"path":"scale"
					}
				},
				{
					"sampler":123,
					"target":{
						"node":40,
						"path":"translation"
					}
				},
				{
					"sampler":124,
					"target":{
						"node":40,
						"path":"rotation"
					}
				},
				{
					"sampler":125,
					"target":{
						"node":40,
						"path":"scale"
					}
				},
				{
					"sampler":126,
					"target":{
						"node":39,
						"path":"translation"
					}
				},
				{
					"sampler":127,
					"target":{
						"node":39,
						"path":"rotation"
					}
				},
				{
					"sampler":128,
					"target":{
						"node":39,
						"path":"scale"
					}
				},
				{
					"sampler":129,
					"target":{
						"node":44,
						"path":"translation"
					}
				},
				{
					"sampler":130,
					"target":{
						"node":44,
						"path":"rotation"
					}
				},
				{
					"sampler":131,
					"target":{
						"node":44,
						"path":"scale"
					}
				},
				{
					"sampler":132,
					"target":{
						"node":43,
						"path":"translation"
					}
				},
				{
					"sampler":133,
					"target":{
						"node":43,
						"path":"rotation"
					}
				},
				{
					"sampler":134,
					"target":{
						"node":43,
						"path":"scale"
					}
				},
				{
					"sampler":135,
					"target":{
						"node":42,
						"path":"translation"
					}
				},
				{
					"sampler":136,
					"target":{
						"node":42,
						"path":"rotation"
					}
				},
				{
					"sampler":137,
					"target":{
						"node":42,
						"path":"scale"
					}
				}
			],
			"name":"Animation",
			"samplers":[
				{
					"input":41,
					"interpolation":"LINEAR",
					"output":42
				},
				{
					"input":43,
					"interpolation":"STEP",
					"output":44
				},
				{
					"input":43,
					"interpolation":"STEP",
					"output":45
				},
				{
					"input":43,
					"interpolation":"STEP",
					"output":46
				},
				{
					"input":41,
					"interpolation":"LINEAR",
					"output":47
				},
				{
					"input":43,
					"interpolation":"STEP",
					"output":48
				},
				{
					"input":43,
					"interpolation":"STEP",
					"output":49
				},
				{
					"input":41,
					"interpolation":"LINEAR",
					"output":50
				},
				{
					"input":43,
					"interpolation":"STEP",
					"output":51
				},
				{
					"input":43,
					"interpolation":"STEP",
					"output":52
				},
				{
					"input":41,
					"interpolation":"LINEAR",
					"output":53
				},
				{
					"input":43,
					"interpolation":"STEP",
					"output":54
				},
				{
					"input":43,
					"interpolation":"STEP",
					"output":55
				},
				{
					"input":41,
					"interpolation":"LINEAR",
					"output":56
				},
				{
					"input":43,
					"interpolation":"STEP",
					"output":45
				},
				{
					"input":43,
					"interpolation":"STEP",
					"output":57
				},
				{
					"input":43,
					"interpolation":"STEP",
					"output":58
				},
				{
					"input":43,
					"interpolation":"STEP",
					"output":59
				},
				{
					"input":43,
					"interpolation":"STEP",
					"output":60
				},
				{
					"input":43,
					"interpolation":"STEP",
					"output":61
				},
				{
					"input":43,
					"interpolation":"STEP",
					"output":62
				},
				{
					"input":43,
					"interpolation":"STEP",
					"output":63
				},
				{
					"input":41,
					"interpolation":"LINEAR",
					"output":64
				},
				{
					"input":43,
					"interpolation":"STEP",
					"output":54
				},
				{
					"input":43,
					"interpolation":"STEP",
					"output":65
				},
				{
					"input":43,
					"interpolation":"STEP",
					"output":66
				},
				{
					"input":43,
					"interpolation":"STEP",
					"output":54
				},
				{
					"input":43,
					"interpolation":"STEP",
					"output":67
				},
				{
					"input":43,
					"interpolation":"STEP",
					"output":68
				},
				{
					"input":43,
					"interpolation":"STEP",
					"output":69
				},
				{
					"input":43,
					"interpolation":"STEP",
					"output":70
				},
				{
					"input":41,
					"interpolation":"LINEAR",
					"output":71
				},
				{
					"input":43,
					"interpolation":"STEP",
					"output":72
				},
				{
					"input":43,
					"interpolation":"STEP",
					"output":73
				},
				{
					"input":43,
					"interpolation":"STEP",
					"output":74
				},
				{
					"input":43,
					"interpolation":"STEP",
					"output":75
				},
				{
					"input":43,
					"interpolation":"STEP",
					"output":76
				},
				{
					"input":43,
					"interpolation":"STEP",
					"output":77
				},
				{
					"input":43,
					"interpolation":"STEP",
					"output":78
				},
				{
					"input":43,
					"interpolation":"STEP",
					"output":79
				},
				{
					"input":41,
					"interpolation":"LINEAR",
					"output":80
				},
				{
					"input":43,
					"interpolation":"STEP",
					"output":45
				},
				{
					"input":43,
					"interpolation":"STEP",
					"output":81
				},
				{
					"input":43,
					"interpolation":"STEP",
					"output":82
				},
				{
					"input":43,
					"interpolation":"STEP",
					"output":83
				},
				{
					"input":43,
					"interpolation":"STEP",
					"output":84
				},
				{
					"input":43,
					"interpolation":"STEP",
					"output":85
				},
				{
					"input":43,
					"interpolation":"STEP",
					"output":86
				},
				{
					"input":43,
					"interpolation":"STEP",
					"output":87
				},
				{
					"input":41,
					"interpolation":"LINEAR",
					"output":88
				},
				{
					"input":43,
					"interpolation":"STEP",
					"output":45
				},
				{
					"input":43,
					"interpolation":"STEP",
					"output":89
				},
				{
					"input":43,
					"interpolation":"STEP",
					"output":90
				},
				{
					"input":43,
					"interpolation":"STEP",
					"output":91
				},
				{
					"input":43,
					"interpolation":"STEP",
					"output":92
				},
				{
					"input":43,
					"interpolation":"STEP",
					"output":93
				},
				{
					"input":43,
					"interpolation":"STEP",
					"output":94
				},
				{
					"input":43,
					"interpolation":"STEP",
					"output":95
				},
				{
					"input":43,
					"interpolation":"STEP",
					"output":96
				},
				{
					"input":43,
					"interpolation":"STEP",
					"output":97
				},
				{
					"input":43,
					"interpolation":"STEP",
					"output":98
				},
				{
					"input":43,
					"interpolation":"STEP",
					"output":96
				},
				{
					"input":43,
					"interpolation":"STEP",
					"output":97
				},
				{
					"input":43,
					"interpolation":"STEP",
					"output":99
				},
				{
					"input":41,
					"interpolation":"LINEAR",
					"output":100
				},
				{
					"input":43,
					"interpolation":"STEP",
					"output":101
				},
				{
					"input":43,
					"interpolation":"STEP",
					"output":102
				},
				{
					"input":41,
					"interpolation":"LINEAR",
					"output":103
				},
				{
					"input":43,
					"interpolation":"STEP",
					"output":104
				},
				{
					"input":43,
					"interpolation":"STEP",
					"output":105
				},
				{
					"input":41,
					"interpolation":"LINEAR",
					"output":106
				},
				{
					"input":43,
					"interpolation":"STEP",
					"output":107
				},
				{
					"input":43,
					"interpolation":"STEP",
					"output":108
				},
				{
					"input":41,
					"interpolation":"LINEAR",
					"output":109
				},
				{
					"input":43,
					"interpolation":"STEP",
					"output":110
				},
				{
					"input":43,
					"interpolation":"STEP",
					"output":111
				},
				{
					"input":43,
					"interpolation":"STEP",
					"output":112
				},
				{
					"input":43,
					"interpolation":"STEP",
					"output":113
				},
				{
					"input":43,
					"interpolation":"STEP",
					"output":114
				},
				{
					"input":43,
					"interpolation":"STEP",
					"output":115
				},
				{
					"input":43,
					"interpolation":"STEP",
					"output":116
				},
				{
					"input":43,
					"interpolation":"STEP",
					"output":117
				},
				{
					"input":41,
					"interpolation":"LINEAR",
					"output":118
				},
				{
					"input":43,
					"interpolation":"STEP",
					"output":116
				},
				{
					"input":43,
					"interpolation":"STEP",
					"output":119
				},
				{
					"input":43,
					"interpolation":"STEP",
					"output":120
				},
				{
					"input":43,
					"interpolation":"STEP",
					"output":45
				},
				{
					"input":43,
					"interpolation":"STEP",
					"output":121
				},
				{
					"input":43,
					"interpolation":"STEP",
					"output":122
				},
				{
					"input":43,
					"interpolation":"STEP",
					"output":123
				},
				{
					"input":43,
					"interpolation":"STEP",
					"output":124
				},
				{
					"input":41,
					"interpolation":"LINEAR",
					"output":125
				},
				{
					"input":43,
					"interpolation":"STEP",
					"output":126
				},
				{
					"input":43,
					"interpolation":"STEP",
					"output":127
				},
				{
					"input":43,
					"interpolation":"STEP",
					"output":128
				},
				{
					"input":43,
					"interpolation":"STEP",
					"output":129
				},
				{
					"input":43,
					"interpolation":"STEP",
					"output":130
				},
				{
					"input":43,
					"interpolation":"STEP",
					"output":131
				},
				{
					"input":43,
					"interpolation":"STEP",
					"output":132
				},
				{
					"input":43,
					"interpolation":"STEP",
					"output":133
				},
				{
					"input":41,
					"interpolation":"LINEAR",
					"output":134
				},
				{
					"input":43,
					"interpolation":"STEP",
					"output":135
				},
				{
					"input":43,
					"interpolation":"STEP",
					"output":136
				},
				{
					"input":43,
					"interpolation":"STEP",
					"output":137
				},
				{
					"input":43,
					"interpolation":"STEP",
					"output":138
				},
				{
					"input":43,
					"interpolation":"STEP",
					"output":139
				},
				{
					"input":43,
					"interpolation":"STEP",
					"output":140
				},
				{
					"input":43,
					"interpolation":"STEP",
					"output":141
				},
				{
					"input":43,
					"interpolation":"STEP",
					"output":142
				},
				{
					"input":41,
					"interpolation":"LINEAR",
					"output":143
				},
				{
					"input":43,
					"interpolation":"STEP",
					"output":144
				},
				{
					"input":43,
					"interpolation":"STEP",
					"output":145
				},
				{
					"input":43,
					"interpolation":"STEP",
					"output":146
				},
				{
					"input":43,
					"interpolation":"STEP",
					"output":147
				},
				{
					"input":43,
					"interpolation":"STEP",
					"output":148
				},
				{
					"input":43,
					"interpolation":"STEP",
					"output":149
				},
				{
					"input":43,
					"interpolation":"STEP",
					"output":150
				},
				{
					"input":43,
					"interpolation":"STEP",
					"output":151
				},
				{
					"input":43,
					"interpolation":"STEP",
					"output":152
				},
				{
					"input":43,
					"interpolation":"STEP",
					"output":153
				},
				{
					"input":43,
					"interpolation":"STEP",
					"output":154
				},
				{
					"input":41,
					"interpolation":"LINEAR",
					"output":155
				},
				{
					"input":43,
					"interpolation":"STEP",
					"output":156
				},
				{
					"input":43,
					"interpolation":"STEP",
					"output":157
				},
				{
					"input":41,
					"interpolation":"LINEAR",
					"output":158
				},
				{
					"input":43,
					"interpolation":"STEP",
					"output":97
				},
				{
					"input":43,
					"interpolation":"STEP",
					"output":159
				},
				{
					"input":41,
					"interpolation":"LINEAR",
					"output":160
				},
				{
					"input":43,
					"interpolation":"STEP",
					"output":161
				},
				{
					"input":41,
					"interpolation":"LINEAR",
					"output":162
				},
				{
					"input":41,
					"interpolation":"LINEAR",
					"output":163
				},
				{
					"input":43,
					"interpolation":"STEP",
					"output":83
				},
				{
					"input":43,
					"interpolation":"STEP",
					"output":164
				},
				{
					"input":41,
					"interpolation":"LINEAR",
					"output":165
				},
				{
					"input":43,
					"interpolation":"STEP",
					"output":45
				},
				{
					"input":43,
					"interpolation":"STEP",
					"output":166
				},
				{
					"input":41,
					"interpolation":"LINEAR",
					"output":167
				},
				{
					"input":43,
					"interpolation":"STEP",
					"output":168
				}
			]
		}
	],
	"materials":[
		{
			"doubleSided":true,
			"extensions":{
				"KHR_materials_specular":{
					"specularFactor":0
				}
			},
			"name":"Plane_Material_1.010",
			"normalTexture":{
				"index":0,
				"scale":0
			},
			"pbrMetallicRoughness":{
				"baseColorTexture":{
					"index":1
				},
				"metallicRoughnessTexture":{
					"index":2
				}
			}
		},
		{
			"doubleSided":true,
			"extensions":{
				"KHR_materials_specular":{
					"specularFactor":0
				}
			},
			"name":"\u0e2a\u0e40\u0e1f\u0e35\u0e22\u0e23\u0e4c\u0e04\u0e27\u0e2d\u0e14_1.003_\u0e2a\u0e40\u0e1f\u0e35\u0e22\u0e23\u0e4c\u0e04\u0e27\u0e2d\u0e14.006",
			"normalTexture":{
				"index":3,
				"scale":0
			},
			"pbrMetallicRoughness":{
				"baseColorTexture":{
					"index":4
				},
				"metallicRoughnessTexture":{
					"index":5
				}
			}
		},
		{
			"doubleSided":true,
			"extensions":{
				"KHR_materials_specular":{
					"specularFactor":0
				}
			},
			"name":"\u0e2a\u0e40\u0e1f\u0e35\u0e22\u0e23\u0e4c\u0e04\u0e27\u0e2d\u0e14_1.003_\u0e2a\u0e40\u0e1f\u0e35\u0e22\u0e23\u0e4c\u0e04\u0e27\u0e2d\u0e14_1_ext_1.006",
			"normalTexture":{
				"index":6,
				"scale":0
			},
			"pbrMetallicRoughness":{
				"baseColorTexture":{
					"index":7
				},
				"metallicRoughnessTexture":{
					"index":8
				}
			}
		},
		{
			"doubleSided":true,
			"extensions":{
				"KHR_materials_specular":{
					"specularFactor":0
				}
			},
			"name":"\u0e44\u0e0b\u0e25\u0e34\u0e19\u0e40\u0e14\u0e2d\u0e23\u0e4c_1.006",
			"normalTexture":{
				"index":9,
				"scale":0
			},
			"pbrMetallicRoughness":{
				"baseColorTexture":{
					"index":10
				},
				"metallicRoughnessTexture":{
					"index":11
				}
			}
		},
		{
			"doubleSided":true,
			"extensions":{
				"KHR_materials_specular":{
					"specularFactor":0
				}
			},
			"name":"off_1.009",
			"normalTexture":{
				"index":12,
				"scale":0
			},
			"pbrMetallicRoughness":{
				"baseColorTexture":{
					"index":13
				},
				"metallicRoughnessTexture":{
					"index":14
				}
			}
		}
	],
	"meshes":[
		{
			"name":"Plane_Material_1.007",
			"primitives":[
				{
					"attributes":{
						"POSITION":0,
						"NORMAL":1,
						"TEXCOORD_0":2,
						"COLOR_0":3,
						"COLOR_1":4,
						"JOINTS_0":5,
						"WEIGHTS_0":6
					},
					"indices":7,
					"material":0
				},
				{
					"attributes":{
						"POSITION":8,
						"NORMAL":9,
						"TEXCOORD_0":10,
						"COLOR_0":11,
						"COLOR_1":12,
						"JOINTS_0":13,
						"WEIGHTS_0":14
					},
					"indices":15,
					"material":1
				},
				{
					"attributes":{
						"POSITION":16,
						"NORMAL":17,
						"TEXCOORD_0":18,
						"COLOR_0":19,
						"COLOR_1":20,
						"JOINTS_0":21,
						"WEIGHTS_0":22
					},
					"indices":23,
					"material":2
				},
				{
					"attributes":{
						"POSITION":24,
						"NORMAL":25,
						"TEXCOORD_0":26,
						"COLOR_0":27,
						"COLOR_1":28,
						"JOINTS_0":29,
						"WEIGHTS_0":30
					},
					"indices":31,
					"material":3
				},
				{
					"attributes":{
						"POSITION":32,
						"NORMAL":33,
						"TEXCOORD_0":34,
						"COLOR_0":35,
						"COLOR_1":36,
						"JOINTS_0":37,
						"WEIGHTS_0":38
					},
					"indices":39,
					"material":4
				}
			]
		}
	],
	"textures":[
		{
			"sampler":0,
			"source":0
		},
		{
			"sampler":0,
			"source":1
		},
		{
			"sampler":0,
			"source":2
		},
		{
			"sampler":0,
			"source":3
		},
		{
			"sampler":0,
			"source":4
		},
		{
			"sampler":0,
			"source":5
		},
		{
			"sampler":0,
			"source":6
		},
		{
			"sampler":0,
			"source":7
		},
		{
			"sampler":0,
			"source":8
		},
		{
			"sampler":0,
			"source":9
		},
		{
			"sampler":0,
			"source":10
		},
		{
			"sampler":0,
			"source":11
		},
		{
			"sampler":0,
			"source":12
		},
		{
			"sampler":0,
			"source":13
		},
		{
			"sampler":0,
			"source":14
		}
	],
	"images":[
		{
			"mimeType":"image/png",
			"name":"Plane_Material_1_normal_2",
			"uri":"Plane_Material_1_normal_2.png"
		},
		{
			"mimeType":"image/png",
			"name":"Plane_Material_1_color_2",
			"uri":"Plane_Material_1_color_2.png"
		},
		{
			"mimeType":"image/png",
			"name":"Plane_Material_1_metalness_2.png-Plane_Material_1_roughness_2.png",
			"uri":"Plane_Material_1_metalness_2.png-Plane_Material_1_roughness_2.png.png"
		},
		{
			"mimeType":"image/png",
			"name":"\u0e2a\u0e40\u0e1f\u0e35\u0e22\u0e23\u0e4c\u0e04\u0e27\u0e2d\u0e14_1_003_\u0e2a\u0e40\u0e1f\u0e35\u0e22\u0e23\u0e4c\u0e04\u0e27\u0e2d\u0e14_normal",
			"uri":"%E0%B8%AA%E0%B9%80%E0%B8%9F%E0%B8%B5%E0%B8%A2%E0%B8%A3%E0%B9%8C%E0%B8%84%E0%B8%A7%E0%B8%AD%E0%B8%94_1_003_%E0%B8%AA%E0%B9%80%E0%B8%9F%E0%B8%B5%E0%B8%A2%E0%B8%A3%E0%B9%8C%E0%B8%84%E0%B8%A7%E0%B8%AD%E0%B8%94_normal.png"
		},
		{
			"mimeType":"image/png",
			"name":"\u0e2a\u0e40\u0e1f\u0e35\u0e22\u0e23\u0e4c\u0e04\u0e27\u0e2d\u0e14_1_003_\u0e2a\u0e40\u0e1f\u0e35\u0e22\u0e23\u0e4c\u0e04\u0e27\u0e2d\u0e14_color",
			"uri":"%E0%B8%AA%E0%B9%80%E0%B8%9F%E0%B8%B5%E0%B8%A2%E0%B8%A3%E0%B9%8C%E0%B8%84%E0%B8%A7%E0%B8%AD%E0%B8%94_1_003_%E0%B8%AA%E0%B9%80%E0%B8%9F%E0%B8%B5%E0%B8%A2%E0%B8%A3%E0%B9%8C%E0%B8%84%E0%B8%A7%E0%B8%AD%E0%B8%94_color.png"
		},
		{
			"mimeType":"image/png",
			"name":"\u0e2a\u0e40\u0e1f\u0e35\u0e22\u0e23\u0e4c\u0e04\u0e27\u0e2d\u0e14_1_003_\u0e2a\u0e40\u0e1f\u0e35\u0e22\u0e23\u0e4c\u0e04\u0e27\u0e2d\u0e14_metalness.png-\u0e2a\u0e40\u0e1f\u0e35\u0e22\u0e23\u0e4c\u0e04\u0e27\u0e2d\u0e14_1_003_\u0e2a\u0e40\u0e1f\u0e35\u0e22\u0e23\u0e4c\u0e04\u0e27\u0e2d\u0e14_roughness.png",
			"uri":"%E0%B8%AA%E0%B9%80%E0%B8%9F%E0%B8%B5%E0%B8%A2%E0%B8%A3%E0%B9%8C%E0%B8%84%E0%B8%A7%E0%B8%AD%E0%B8%94_1_003_%E0%B8%AA%E0%B9%80%E0%B8%9F%E0%B8%B5%E0%B8%A2%E0%B8%A3%E0%B9%8C%E0%B8%84%E0%B8%A7%E0%B8%AD%E0%B8%94_metalness.png-%E0%B8%AA%E0%B9%80%E0%B8%9F%E0%B8%B5%E0%B8%A2%E0%B8%A3%E0%B9%8C%E0%B8%84%E0%B8%A7%E0%B8%AD%E0%B8%94_1_003_%E0%B8%AA%E0%B9%80%E0%B8%9F%E0%B8%B5%E0%B8%A2%E0%B8%A3%E0%B9%8C%E0%B8%84%E0%B8%A7%E0%B8%AD%E0%B8%94_roughness.png.png"
		},
		{
			"mimeType":"image/png",
			"name":"\u0e2a\u0e40\u0e1f\u0e35\u0e22\u0e23\u0e4c\u0e04\u0e27\u0e2d\u0e14_1_003_\u0e2a\u0e40\u0e1f\u0e35\u0e22\u0e23\u0e4c\u0e04\u0e27\u0e2d\u0e14_1_ext_1_normal",
			"uri":"%E0%B8%AA%E0%B9%80%E0%B8%9F%E0%B8%B5%E0%B8%A2%E0%B8%A3%E0%B9%8C%E0%B8%84%E0%B8%A7%E0%B8%AD%E0%B8%94_1_003_%E0%B8%AA%E0%B9%80%E0%B8%9F%E0%B8%B5%E0%B8%A2%E0%B8%A3%E0%B9%8C%E0%B8%84%E0%B8%A7%E0%B8%AD%E0%B8%94_1_ext_1_normal.png"
		},
		{
			"mimeType":"image/png",
			"name":"\u0e2a\u0e40\u0e1f\u0e35\u0e22\u0e23\u0e4c\u0e04\u0e27\u0e2d\u0e14_1_003_\u0e2a\u0e40\u0e1f\u0e35\u0e22\u0e23\u0e4c\u0e04\u0e27\u0e2d\u0e14_1_ext_1_color",
			"uri":"%E0%B8%AA%E0%B9%80%E0%B8%9F%E0%B8%B5%E0%B8%A2%E0%B8%A3%E0%B9%8C%E0%B8%84%E0%B8%A7%E0%B8%AD%E0%B8%94_1_003_%E0%B8%AA%E0%B9%80%E0%B8%9F%E0%B8%B5%E0%B8%A2%E0%B8%A3%E0%B9%8C%E0%B8%84%E0%B8%A7%E0%B8%AD%E0%B8%94_1_ext_1_color.png"
		},
		{
			"mimeType":"image/png",
			"name":"\u0e2a\u0e40\u0e1f\u0e35\u0e22\u0e23\u0e4c\u0e04\u0e27\u0e2d\u0e14_1_003_\u0e2a\u0e40\u0e1f\u0e35\u0e22\u0e23\u0e4c\u0e04\u0e27\u0e2d\u0e14_1_ext_1_metalness.png-\u0e2a\u0e40\u0e1f\u0e35\u0e22\u0e23\u0e4c\u0e04\u0e27\u0e2d\u0e14_1_003_\u0e2a\u0e40\u0e1f\u0e35\u0e22\u0e23\u0e4c\u0e04\u0e27\u0e2d\u0e14_1_ext_1_roughness.png",
			"uri":"%E0%B8%AA%E0%B9%80%E0%B8%9F%E0%B8%B5%E0%B8%A2%E0%B8%A3%E0%B9%8C%E0%B8%84%E0%B8%A7%E0%B8%AD%E0%B8%94_1_003_%E0%B8%AA%E0%B9%80%E0%B8%9F%E0%B8%B5%E0%B8%A2%E0%B8%A3%E0%B9%8C%E0%B8%84%E0%B8%A7%E0%B8%AD%E0%B8%94_1_ext_1_metalness.png-%E0%B8%AA%E0%B9%80%E0%B8%9F%E0%B8%B5%E0%B8%A2%E0%B8%A3%E0%B9%8C%E0%B8%84%E0%B8%A7%E0%B8%AD%E0%B8%94_1_003_%E0%B8%AA%E0%B9%80%E0%B8%9F%E0%B8%B5%E0%B8%A2%E0%B8%A3%E0%B9%8C%E0%B8%84%E0%B8%A7%E0%B8%AD%E0%B8%94_1_ext_1_roughness.png.png"
		},
		{
			"mimeType":"image/png",
			"name":"\u0e44\u0e0b\u0e25\u0e34\u0e19\u0e40\u0e14\u0e2d\u0e23\u0e4c_1_normal",
			"uri":"%E0%B9%84%E0%B8%8B%E0%B8%A5%E0%B8%B4%E0%B8%99%E0%B9%80%E0%B8%94%E0%B8%AD%E0%B8%A3%E0%B9%8C_1_normal.png"
		},
		{
			"mimeType":"image/png",
			"name":"\u0e44\u0e0b\u0e25\u0e34\u0e19\u0e40\u0e14\u0e2d\u0e23\u0e4c_1_color",
			"uri":"%E0%B9%84%E0%B8%8B%E0%B8%A5%E0%B8%B4%E0%B8%99%E0%B9%80%E0%B8%94%E0%B8%AD%E0%B8%A3%E0%B9%8C_1_color.png"
		},
		{
			"mimeType":"image/png",
			"name":"\u0e44\u0e0b\u0e25\u0e34\u0e19\u0e40\u0e14\u0e2d\u0e23\u0e4c_1_metalness.png-\u0e44\u0e0b\u0e25\u0e34\u0e19\u0e40\u0e14\u0e2d\u0e23\u0e4c_1_roughness.png",
			"uri":"%E0%B9%84%E0%B8%8B%E0%B8%A5%E0%B8%B4%E0%B8%99%E0%B9%80%E0%B8%94%E0%B8%AD%E0%B8%A3%E0%B9%8C_1_metalness.png-%E0%B9%84%E0%B8%8B%E0%B8%A5%E0%B8%B4%E0%B8%99%E0%B9%80%E0%B8%94%E0%B8%AD%E0%B8%A3%E0%B9%8C_1_roughness.png.png"
		},
		{
			"mimeType":"image/png",
			"name":"off_1_normal",
			"uri":"off_1_normal.png"
		},
		{
			"mimeType":"image/png",
			"name":"off_1_color",
			"uri":"off_1_color.png"
		},
		{
			"mimeType":"image/png",
			"name":"off_1_metalness.png-off_1_roughness.png",
			"uri":"off_1_metalness.png-off_1_roughness.png.png"
		}
	],
	"skins":[
		{
			"inverseBindMatrices":40,
			"joints":[
				38,
				17,
				16,
				15,
				2,
				1,
				0,
				5,
				4,
				3,
				8,
				7,
				6,
				11,
				10,
				9,
				14,
				13,
				12,
				19,
				18,
				37,
				36,
				35,
				22,
				21,
				20,
				25,
				24,
				23,
				28,
				27,
				26,
				31,
				30,
				29,
				34,
				33,
				32,
				45,
				41,
				40,
				39,
				44,
				43,
				42
			],
			"name":"alpla armature.008"
		}
	],
	"accessors":[
		{
			"bufferView":0,
			"componentType":5126,
			"count":18343,
			"max":[
				1.6139044761657715,
				2.7439520359039307,
				0.2987971901893616
			],
			"min":[
				-1.613904595375061,
				1.429922342300415,
				-0.26128819584846497
			],
			"type":"VEC3"
		},
		{
			"bufferView":1,
			"componentType":5126,
			"count":18343,
			"type":"VEC3"
		},
		{
			"bufferView":2,
			"componentType":5126,
			"count":18343,
			"type":"VEC2"
		},
		{
			"bufferView":3,
			"componentType":5121,
			"count":18343,
			"normalized":true,
			"type":"VEC4"
		},
		{
			"bufferView":4,
			"componentType":5123,
			"count":18343,
			"normalized":true,
			"type":"VEC4"
		},
		{
			"bufferView":5,
			"componentType":5121,
			"count":18343,
			"type":"VEC4"
		},
		{
			"bufferView":6,
			"componentType":5126,
			"count":18343,
			"type":"VEC4"
		},
		{
			"bufferView":7,
			"componentType":5123,
			"count":63300,
			"type":"SCALAR"
		},
		{
			"bufferView":8,
			"componentType":5126,
			"count":2314,
			"max":[
				0.3971732556819916,
				3.494938611984253,
				0.4057081341743469
			],
			"min":[
				-0.3968745768070221,
				2.613797426223755,
				-0.40211090445518494
			],
			"type":"VEC3"
		},
		{
			"bufferView":9,
			"componentType":5126,
			"count":2314,
			"type":"VEC3"
		},
		{
			"bufferView":10,
			"componentType":5126,
			"count":2314,
			"type":"VEC2"
		},
		{
			"bufferView":11,
			"componentType":5121,
			"count":2314,
			"normalized":true,
			"type":"VEC4"
		},
		{
			"bufferView":12,
			"componentType":5123,
			"count":2314,
			"normalized":true,
			"type":"VEC4"
		},
		{
			"bufferView":13,
			"componentType":5121,
			"count":2314,
			"type":"VEC4"
		},
		{
			"bufferView":14,
			"componentType":5126,
			"count":2314,
			"type":"VEC4"
		},
		{
			"bufferView":15,
			"componentType":5123,
			"count":8910,
			"type":"SCALAR"
		},
		{
			"bufferView":16,
			"componentType":5126,
			"count":3963,
			"max":[
				0.4540870785713196,
				3.594719886779785,
				0.49795016646385193
			],
			"min":[
				-0.4465081989765167,
				3.049704074859619,
				-0.5010569095611572
			],
			"type":"VEC3"
		},
		{
			"bufferView":17,
			"componentType":5126,
			"count":3963,
			"type":"VEC3"
		},
		{
			"bufferView":18,
			"componentType":5126,
			"count":3963,
			"type":"VEC2"
		},
		{
			"bufferView":19,
			"componentType":5121,
			"count":3963,
			"normalized":true,
			"type":"VEC4"
		},
		{
			"bufferView":20,
			"componentType":5123,
			"count":3963,
			"normalized":true,
			"type":"VEC4"
		},
		{
			"bufferView":21,
			"componentType":5121,
			"count":3963,
			"type":"VEC4"
		},
		{
			"bufferView":22,
			"componentType":5126,
			"count":3963,
			"type":"VEC4"
		},
		{
			"bufferView":23,
			"componentType":5123,
			"count":21972,
			"type":"SCALAR"
		},
		{
			"bufferView":24,
			"componentType":5126,
			"count":3119,
			"max":[
				0.41030481457710266,
				1.474231481552124,
				0.2743224799633026
			],
			"min":[
				-0.4104265868663788,
				0.32682672142982483,
				-0.27538150548934937
			],
			"type":"VEC3"
		},
		{
			"bufferView":25,
			"componentType":5126,
			"count":3119,
			"type":"VEC3"
		},
		{
			"bufferView":26,
			"componentType":5126,
			"count":3119,
			"type":"VEC2"
		},
		{
			"bufferView":27,
			"componentType":5121,
			"count":3119,
			"normalized":true,
			"type":"VEC4"
		},
		{
			"bufferView":28,
			"componentType":5123,
			"count":3119,
			"normalized":true,
			"type":"VEC4"
		},
		{
			"bufferView":29,
			"componentType":5121,
			"count":3119,
			"type":"VEC4"
		},
		{
			"bufferView":30,
			"componentType":5126,
			"count":3119,
			"type":"VEC4"
		},
		{
			"bufferView":31,
			"componentType":5123,
			"count":16791,
			"type":"SCALAR"
		},
		{
			"bufferView":32,
			"componentType":5126,
			"count":1249,
			"max":[
				0.3881761431694031,
				0.35202234983444214,
				0.42916885018348694
			],
			"min":[
				-0.3881761431694031,
				-5.198404687689617e-05,
				-0.16003061830997467
			],
			"type":"VEC3"
		},
		{
			"bufferView":33,
			"componentType":5126,
			"count":1249,
			"type":"VEC3"
		},
		{
			"bufferView":34,
			"componentType":5126,
			"count":1249,
			"type":"VEC2"
		},
		{
			"bufferView":35,
			"componentType":5121,
			"count":1249,
			"normalized":true,
			"type":"VEC4"
		},
		{
			"bufferView":36,
			"componentType":5123,
			"count":1249,
			"normalized":true,
			"type":"VEC4"
		},
		{
			"bufferView":37,
			"componentType":5121,
			"count":1249,
			"type":"VEC4"
		},
		{
			"bufferView":38,
			"componentType":5126,
			"count":1249,
			"type":"VEC4"
		},
		{
			"bufferView":39,
			"componentType":5123,
			"count":4884,
			"type":"SCALAR"
		},
		{
			"bufferView":40,
			"componentType":5126,
			"count":46,
			"type":"MAT4"
		},
		{
			"bufferView":41,
			"componentType":5126,
			"count":25,
			"max":[
				1
			],
			"min":[
				0
			],
			"type":"SCALAR"
		},
		{
			"bufferView":42,
			"componentType":5126,
			"count":25,
			"type":"VEC3"
		},
		{
			"bufferView":43,
			"componentType":5126,
			"count":2,
			"max":[
				1
			],
			"min":[
				0
			],
			"type":"SCALAR"
		},
		{
			"bufferView":44,
			"componentType":5126,
			"count":2,
			"type":"VEC4"
		},
		{
			"bufferView":45,
			"componentType":5126,
			"count":2,
			"type":"VEC3"
		},
		{
			"bufferView":46,
			"componentType":5126,
			"count":2,
			"type":"VEC3"
		},
		{
			"bufferView":47,
			"componentType":5126,
			"count":25,
			"type":"VEC4"
		},
		{
			"bufferView":48,
			"componentType":5126,
			"count":2,
			"type":"VEC3"
		},
		{
			"bufferView":49,
			"componentType":5126,
			"count":2,
			"type":"VEC3"
		},
		{
			"bufferView":50,
			"componentType":5126,
			"count":25,
			"type":"VEC4"
		},
		{
			"bufferView":51,
			"componentType":5126,
			"count":2,
			"type":"VEC3"
		},
		{
			"bufferView":52,
			"componentType":5126,
			"count":2,
			"type":"VEC3"
		},
		{
			"bufferView":53,
			"componentType":5126,
			"count":25,
			"type":"VEC4"
		},
		{
			"bufferView":54,
			"componentType":5126,
			"count":2,
			"type":"VEC3"
		},
		{
			"bufferView":55,
			"componentType":5126,
			"count":2,
			"type":"VEC3"
		},
		{
			"bufferView":56,
			"componentType":5126,
			"count":25,
			"type":"VEC4"
		},
		{
			"bufferView":57,
			"componentType":5126,
			"count":2,
			"type":"VEC3"
		},
		{
			"bufferView":58,
			"componentType":5126,
			"count":2,
			"type":"VEC4"
		},
		{
			"bufferView":59,
			"componentType":5126,
			"count":2,
			"type":"VEC3"
		},
		{
			"bufferView":60,
			"componentType":5126,
			"count":2,
			"type":"VEC3"
		},
		{
			"bufferView":61,
			"componentType":5126,
			"count":2,
			"type":"VEC4"
		},
		{
			"bufferView":62,
			"componentType":5126,
			"count":2,
			"type":"VEC3"
		},
		{
			"bufferView":63,
			"componentType":5126,
			"count":2,
			"type":"VEC3"
		},
		{
			"bufferView":64,
			"componentType":5126,
			"count":25,
			"type":"VEC4"
		},
		{
			"bufferView":65,
			"componentType":5126,
			"count":2,
			"type":"VEC3"
		},
		{
			"bufferView":66,
			"componentType":5126,
			"count":2,
			"type":"VEC4"
		},
		{
			"bufferView":67,
			"componentType":5126,
			"count":2,
			"type":"VEC3"
		},
		{
			"bufferView":68,
			"componentType":5126,
			"count":2,
			"type":"VEC4"
		},
		{
			"bufferView":69,
			"componentType":5126,
			"count":2,
			"type":"VEC3"
		},
		{
			"bufferView":70,
			"componentType":5126,
			"count":2,
			"type":"VEC3"
		},
		{
			"bufferView":71,
			"componentType":5126,
			"count":25,
			"type":"VEC4"
		},
		{
			"bufferView":72,
			"componentType":5126,
			"count":2,
			"type":"VEC3"
		},
		{
			"bufferView":73,
			"componentType":5126,
			"count":2,
			"type":"VEC3"
		},
		{
			"bufferView":74,
			"componentType":5126,
			"count":2,
			"type":"VEC4"
		},
		{
			"bufferView":75,
			"componentType":5126,
			"count":2,
			"type":"VEC3"
		},
		{
			"bufferView":76,
			"componentType":5126,
			"count":2,
			"type":"VEC3"
		},
		{
			"bufferView":77,
			"componentType":5126,
			"count":2,
			"type":"VEC4"
		},
		{
			"bufferView":78,
			"componentType":5126,
			"count":2,
			"type":"VEC3"
		},
		{
			"bufferView":79,
			"componentType":5126,
			"count":2,
			"type":"VEC3"
		},
		{
			"bufferView":80,
			"componentType":5126,
			"count":25,
			"type":"VEC4"
		},
		{
			"bufferView":81,
			"componentType":5126,
			"count":2,
			"type":"VEC3"
		},
		{
			"bufferView":82,
			"componentType":5126,
			"count":2,
			"type":"VEC4"
		},
		{
			"bufferView":83,
			"componentType":5126,
			"count":2,
			"type":"VEC3"
		},
		{
			"bufferView":84,
			"componentType":5126,
			"count":2,
			"type":"VEC3"
		},
		{
			"bufferView":85,
			"componentType":5126,
			"count":2,
			"type":"VEC4"
		},
		{
			"bufferView":86,
			"componentType":5126,
			"count":2,
			"type":"VEC3"
		},
		{
			"bufferView":87,
			"componentType":5126,
			"count":2,
			"type":"VEC3"
		},
		{
			"bufferView":88,
			"componentType":5126,
			"count":25,
			"type":"VEC4"
		},
		{
			"bufferView":89,
			"componentType":5126,
			"count":2,
			"type":"VEC3"
		},
		{
			"bufferView":90,
			"componentType":5126,
			"count":2,
			"type":"VEC4"
		},
		{
			"bufferView":91,
			"componentType":5126,
			"count":2,
			"type":"VEC3"
		},
		{
			"bufferView":92,
			"componentType":5126,
			"count":2,
			"type":"VEC3"
		},
		{
			"bufferView":93,
			"componentType":5126,
			"count":2,
			"type":"VEC4"
		},
		{
			"bufferView":94,
			"componentType":5126,
			"count":2,
			"type":"VEC3"
		},
		{
			"bufferView":95,
			"componentType":5126,
			"count":2,
			"type":"VEC3"
		},
		{
			"bufferView":96,
			"componentType":5126,
			"count":2,
			"type":"VEC4"
		},
		{
			"bufferView":97,
			"componentType":5126,
			"count":2,
			"type":"VEC3"
		},
		{
			"bufferView":98,
			"componentType":5126,
			"count":2,
			"type":"VEC3"
		},
		{
			"bufferView":99,
			"componentType":5126,
			"count":2,
			"type":"VEC3"
		},
		{
			"bufferView":100,
			"componentType":5126,
			"count":25,
			"type":"VEC4"
		},
		{
			"bufferView":101,
			"componentType":5126,
			"count":2,
			"type":"VEC3"
		},
		{
			"bufferView":102,
			"componentType":5126,
			"count":2,
			"type":"VEC3"
		},
		{
			"bufferView":103,
			"componentType":5126,
			"count":25,
			"type":"VEC4"
		},
		{
			"bufferView":104,
			"componentType":5126,
			"count":2,
			"type":"VEC3"
		},
		{
			"bufferView":105,
			"componentType":5126,
			"count":2,
			"type":"VEC3"
		},
		{
			"bufferView":106,
			"componentType":5126,
			"count":25,
			"type":"VEC4"
		},
		{
			"bufferView":107,
			"componentType":5126,
			"count":2,
			"type":"VEC3"
		},
		{
			"bufferView":108,
			"componentType":5126,
			"count":2,
			"type":"VEC3"
		},
		{
			"bufferView":109,
			"componentType":5126,
			"count":25,
			"type":"VEC4"
		},
		{
			"bufferView":110,
			"componentType":5126,
			"count":2,
			"type":"VEC3"
		},
		{
			"bufferView":111,
			"componentType":5126,
			"count":2,
			"type":"VEC3"
		},
		{
			"bufferView":112,
			"componentType":5126,
			"count":2,
			"type":"VEC4"
		},
		{
			"bufferView":113,
			"componentType":5126,
			"count":2,
			"type":"VEC3"
		},
		{
			"bufferView":114,
			"componentType":5126,
			"count":2,
			"type":"VEC3"
		},
		{
			"bufferView":115,
			"componentType":5126,
			"count":2,
			"type":"VEC4"
		},
		{
			"bufferView":116,
			"componentType":5126,
			"count":2,
			"type":"VEC3"
		},
		{
			"bufferView":117,
			"componentType":5126,
			"count":2,
			"type":"VEC3"
		},
		{
			"bufferView":118,
			"componentType":5126,
			"count":25,
			"type":"VEC4"
		},
		{
			"bufferView":119,
			"componentType":5126,
			"count":2,
			"type":"VEC3"
		},
		{
			"bufferView":120,
			"componentType":5126,
			"count":2,
			"type":"VEC4"
		},
		{
			"bufferView":121,
			"componentType":5126,
			"count":2,
			"type":"VEC3"
		},
		{
			"bufferView":122,
			"componentType":5126,
			"count":2,
			"type":"VEC4"
		},
		{
			"bufferView":123,
			"componentType":5126,
			"count":2,
			"type":"VEC3"
		},
		{
			"bufferView":124,
			"componentType":5126,
			"count":2,
			"type":"VEC3"
		},
		{
			"bufferView":125,
			"componentType":5126,
			"count":25,
			"type":"VEC4"
		},
		{
			"bufferView":126,
			"componentType":5126,
			"count":2,
			"type":"VEC3"
		},
		{
			"bufferView":127,
			"componentType":5126,
			"count":2,
			"type":"VEC3"
		},
		{
			"bufferView":128,
			"componentType":5126,
			"count":2,
			"type":"VEC4"
		},
		{
			"bufferView":129,
			"componentType":5126,
			"count":2,
			"type":"VEC3"
		},
		{
			"bufferView":130,
			"componentType":5126,
			"count":2,
			"type":"VEC3"
		},
		{
			"bufferView":131,
			"componentType":5126,
			"count":2,
			"type":"VEC4"
		},
		{
			"bufferView":132,
			"componentType":5126,
			"count":2,
			"type":"VEC3"
		},
		{
			"bufferView":133,
			"componentType":5126,
			"count":2,
			"type":"VEC3"
		},
		{
			"bufferView":134,
			"componentType":5126,
			"count":25,
			"type":"VEC4"
		},
		{
			"bufferView":135,
			"componentType":5126,
			"count":2,
			"type":"VEC3"
		},
		{
			"bufferView":136,
			"componentType":5126,
			"count":2,
			"type":"VEC3"
		},
		{
			"bufferView":137,
			"componentType":5126,
			"count":2,
			"type":"VEC4"
		},
		{
			"bufferView":138,
			"componentType":5126,
			"count":2,
			"type":"VEC3"
		},
		{
			"bufferView":139,
			"componentType":5126,
			"count":2,
			"type":"VEC3"
		},
		{
			"bufferView":140,
			"componentType":5126,
			"count":2,
			"type":"VEC4"
		},
		{
			"bufferView":141,
			"componentType":5126,
			"count":2,
			"type":"VEC3"
		},
		{
			"bufferView":142,
			"componentType":5126,
			"count":2,
			"type":"VEC3"
		},
		{
			"bufferView":143,
			"componentType":5126,
			"count":25,
			"type":"VEC4"
		},
		{
			"bufferView":144,
			"componentType":5126,
			"count":2,
			"type":"VEC3"
		},
		{
			"bufferView":145,
			"componentType":5126,
			"count":2,
			"type":"VEC3"
		},
		{
			"bufferView":146,
			"componentType":5126,
			"count":2,
			"type":"VEC4"
		},
		{
			"bufferView":147,
			"componentType":5126,
			"count":2,
			"type":"VEC3"
		},
		{
			"bufferView":148,
			"componentType":5126,
			"count":2,
			"type":"VEC3"
		},
		{
			"bufferView":149,
			"componentType":5126,
			"count":2,
			"type":"VEC4"
		},
		{
			"bufferView":150,
			"componentType":5126,
			"count":2,
			"type":"VEC3"
		},
		{
			"bufferView":151,
			"componentType":5126,
			"count":2,
			"type":"VEC3"
		},
		{
			"bufferView":152,
			"componentType":5126,
			"count":2,
			"type":"VEC4"
		},
		{
			"bufferView":153,
			"componentType":5126,
			"count":2,
			"type":"VEC3"
		},
		{
			"bufferView":154,
			"componentType":5126,
			"count":2,
			"type":"VEC3"
		},
		{
			"bufferView":155,
			"componentType":5126,
			"count":25,
			"type":"VEC4"
		},
		{
			"bufferView":156,
			"componentType":5126,
			"count":2,
			"type":"VEC3"
		},
		{
			"bufferView":157,
			"componentType":5126,
			"count":2,
			"type":"VEC3"
		},
		{
			"bufferView":158,
			"componentType":5126,
			"count":25,
			"type":"VEC4"
		},
		{
			"bufferView":159,
			"componentType":5126,
			"count":2,
			"type":"VEC3"
		},
		{
			"bufferView":160,
			"componentType":5126,
			"count":25,
			"type":"VEC4"
		},
		{
			"bufferView":161,
			"componentType":5126,
			"count":2,
			"type":"VEC3"
		},
		{
			"bufferView":162,
			"componentType":5126,
			"count":25,
			"type":"VEC3"
		},
		{
			"bufferView":163,
			"componentType":5126,
			"count":25,
			"type":"VEC4"
		},
		{
			"bufferView":164,
			"componentType":5126,
			"count":2,
			"type":"VEC3"
		},
		{
			"bufferView":165,
			"componentType":5126,
			"count":25,
			"type":"VEC4"
		},
		{
			"bufferView":166,
			"componentType":5126,
			"count":2,
			"type":"VEC3"
		},
		{
			"bufferView":167,
			"componentType":5126,
			"count":25,
			"type":"VEC4"
		},
		{
			"bufferView":168,
			"componentType":5126,
			"count":2,
			"type":"VEC3"
		}
	],
	"bufferViews":[
		{
			"buffer":0,
			"byteLength":220116,
			"byteOffset":0,
			"target":34962
		},
		{
			"buffer":0,
			"byteLength":220116,
			"byteOffset":220116,
			"target":34962
		},
		{
			"buffer":0,
			"byteLength":146744,
			"byteOffset":440232,
			"target":34962
		},
		{
			"buffer":0,
			"byteLength":73372,
			"byteOffset":586976,
			"target":34962
		},
		{
			"buffer":0,
			"byteLength":146744,
			"byteOffset":660348,
			"target":34962
		},
		{
			"buffer":0,
			"byteLength":73372,
			"byteOffset":807092,
			"target":34962
		},
		{
			"buffer":0,
			"byteLength":293488,
			"byteOffset":880464,
			"target":34962
		},
		{
			"buffer":0,
			"byteLength":126600,
			"byteOffset":1173952,
			"target":34963
		},
		{
			"buffer":0,
			"byteLength":27768,
			"byteOffset":1300552,
			"target":34962
		},
		{
			"buffer":0,
			"byteLength":27768,
			"byteOffset":1328320,
			"target":34962
		},
		{
			"buffer":0,
			"byteLength":18512,
			"byteOffset":1356088,
			"target":34962
		},
		{
			"buffer":0,
			"byteLength":9256,
			"byteOffset":1374600,
			"target":34962
		},
		{
			"buffer":0,
			"byteLength":18512,
			"byteOffset":1383856,
			"target":34962
		},
		{
			"buffer":0,
			"byteLength":9256,
			"byteOffset":1402368,
			"target":34962
		},
		{
			"buffer":0,
			"byteLength":37024,
			"byteOffset":1411624,
			"target":34962
		},
		{
			"buffer":0,
			"byteLength":17820,
			"byteOffset":1448648,
			"target":34963
		},
		{
			"buffer":0,
			"byteLength":47556,
			"byteOffset":1466468,
			"target":34962
		},
		{
			"buffer":0,
			"byteLength":47556,
			"byteOffset":1514024,
			"target":34962
		},
		{
			"buffer":0,
			"byteLength":31704,
			"byteOffset":1561580,
			"target":34962
		},
		{
			"buffer":0,
			"byteLength":15852,
			"byteOffset":1593284,
			"target":34962
		},
		{
			"buffer":0,
			"byteLength":31704,
			"byteOffset":1609136,
			"target":34962
		},
		{
			"buffer":0,
			"byteLength":15852,
			"byteOffset":1640840,
			"target":34962
		},
		{
			"buffer":0,
			"byteLength":63408,
			"byteOffset":1656692,
			"target":34962
		},
		{
			"buffer":0,
			"byteLength":43944,
			"byteOffset":1720100,
			"target":34963
		},
		{
			"buffer":0,
			"byteLength":37428,
			"byteOffset":1764044,
			"target":34962
		},
		{
			"buffer":0,
			"byteLength":37428,
			"byteOffset":1801472,
			"target":34962
		},
		{
			"buffer":0,
			"byteLength":24952,
			"byteOffset":1838900,
			"target":34962
		},
		{
			"buffer":0,
			"byteLength":12476,
			"byteOffset":1863852,
			"target":34962
		},
		{
			"buffer":0,
			"byteLength":24952,
			"byteOffset":1876328,
			"target":34962
		},
		{
			"buffer":0,
			"byteLength":12476,
			"byteOffset":1901280,
			"target":34962
		},
		{
			"buffer":0,
			"byteLength":49904,
			"byteOffset":1913756,
			"target":34962
		},
		{
			"buffer":0,
			"byteLength":33582,
			"byteOffset":1963660,
			"target":34963
		},
		{
			"buffer":0,
			"byteLength":14988,
			"byteOffset":1997244,
			"target":34962
		},
		{
			"buffer":0,
			"byteLength":14988,
			"byteOffset":2012232,
			"target":34962
		},
		{
			"buffer":0,
			"byteLength":9992,
			"byteOffset":2027220,
			"target":34962
		},
		{
			"buffer":0,
			"byteLength":4996,
			"byteOffset":2037212,
			"target":34962
		},
		{
			"buffer":0,
			"byteLength":9992,
			"byteOffset":2042208,
			"target":34962
		},
		{
			"buffer":0,
			"byteLength":4996,
			"byteOffset":2052200,
			"target":34962
		},
		{
			"buffer":0,
			"byteLength":19984,
			"byteOffset":2057196,
			"target":34962
		},
		{
			"buffer":0,
			"byteLength":9768,
			"byteOffset":2077180,
			"target":34963
		},
		{
			"buffer":0,
			"byteLength":2944,
			"byteOffset":2086948
		},
		{
			"buffer":0,
			"byteLength":100,
			"byteOffset":2089892
		},
		{
			"buffer":0,
			"byteLength":300,
			"byteOffset":2089992
		},
		{
			"buffer":0,
			"byteLength":8,
			"byteOffset":2090292
		},
		{
			"buffer":0,
			"byteLength":32,
			"byteOffset":2090300
		},
		{
			"buffer":0,
			"byteLength":24,
			"byteOffset":2090332
		},
		{
			"buffer":0,
			"byteLength":24,
			"byteOffset":2090356
		},
		{
			"buffer":0,
			"byteLength":400,
			"byteOffset":2090380
		},
		{
			"buffer":0,
			"byteLength":24,
			"byteOffset":2090780
		},
		{
			"buffer":0,
			"byteLength":24,
			"byteOffset":2090804
		},
		{
			"buffer":0,
			"byteLength":400,
			"byteOffset":2090828
		},
		{
			"buffer":0,
			"byteLength":24,
			"byteOffset":2091228
		},
		{
			"buffer":0,
			"byteLength":24,
			"byteOffset":2091252
		},
		{
			"buffer":0,
			"byteLength":400,
			"byteOffset":2091276
		},
		{
			"buffer":0,
			"byteLength":24,
			"byteOffset":2091676
		},
		{
			"buffer":0,
			"byteLength":24,
			"byteOffset":2091700
		},
		{
			"buffer":0,
			"byteLength":400,
			"byteOffset":2091724
		},
		{
			"buffer":0,
			"byteLength":24,
			"byteOffset":2092124
		},
		{
			"buffer":0,
			"byteLength":32,
			"byteOffset":2092148
		},
		{
			"buffer":0,
			"byteLength":24,
			"byteOffset":2092180
		},
		{
			"buffer":0,
			"byteLength":24,
			"byteOffset":2092204
		},
		{
			"buffer":0,
			"byteLength":32,
			"byteOffset":2092228
		},
		{
			"buffer":0,
			"byteLength":24,
			"byteOffset":2092260
		},
		{
			"buffer":0,
			"byteLength":24,
			"byteOffset":2092284
		},
		{
			"buffer":0,
			"byteLength":400,
			"byteOffset":2092308
		},
		{
			"buffer":0,
			"byteLength":24,
			"byteOffset":2092708
		},
		{
			"buffer":0,
			"byteLength":32,
			"byteOffset":2092732
		},
		{
			"buffer":0,
			"byteLength":24,
			"byteOffset":2092764
		},
		{
			"buffer":0,
			"byteLength":32,
			"byteOffset":2092788
		},
		{
			"buffer":0,
			"byteLength":24,
			"byteOffset":2092820
		},
		{
			"buffer":0,
			"byteLength":24,
			"byteOffset":2092844
		},
		{
			"buffer":0,
			"byteLength":400,
			"byteOffset":2092868
		},
		{
			"buffer":0,
			"byteLength":24,
			"byteOffset":2093268
		},
		{
			"buffer":0,
			"byteLength":24,
			"byteOffset":2093292
		},
		{
			"buffer":0,
			"byteLength":32,
			"byteOffset":2093316
		},
		{
			"buffer":0,
			"byteLength":24,
			"byteOffset":2093348
		},
		{
			"buffer":0,
			"byteLength":24,
			"byteOffset":2093372
		},
		{
			"buffer":0,
			"byteLength":32,
			"byteOffset":2093396
		},
		{
			"buffer":0,
			"byteLength":24,
			"byteOffset":2093428
		},
		{
			"buffer":0,
			"byteLength":24,
			"byteOffset":2093452
		},
		{
			"buffer":0,
			"byteLength":400,
			"byteOffset":2093476
		},
		{
			"buffer":0,
			"byteLength":24,
			"byteOffset":2093876
		},
		{
			"buffer":0,
			"byteLength":32,
			"byteOffset":2093900
		},
		{
			"buffer":0,
			"byteLength":24,
			"byteOffset":2093932
		},
		{
			"buffer":0,
			"byteLength":24,
			"byteOffset":2093956
		},
		{
			"buffer":0,
			"byteLength":32,
			"byteOffset":2093980
		},
		{
			"buffer":0,
			"byteLength":24,
			"byteOffset":2094012
		},
		{
			"buffer":0,
			"byteLength":24,
			"byteOffset":2094036
		},
		{
			"buffer":0,
			"byteLength":400,
			"byteOffset":2094060
		},
		{
			"buffer":0,
			"byteLength":24,
			"byteOffset":2094460
		},
		{
			"buffer":0,
			"byteLength":32,
			"byteOffset":2094484
		},
		{
			"buffer":0,
			"byteLength":24,
			"byteOffset":2094516
		},
		{
			"buffer":0,
			"byteLength":24,
			"byteOffset":2094540
		},
		{
			"buffer":0,
			"byteLength":32,
			"byteOffset":2094564
		},
		{
			"buffer":0,
			"byteLength":24,
			"byteOffset":2094596
		},
		{
			"buffer":0,
			"byteLength":24,
			"byteOffset":2094620
		},
		{
			"buffer":0,
			"byteLength":32,
			"byteOffset":2094644
		},
		{
			"buffer":0,
			"byteLength":24,
			"byteOffset":2094676
		},
		{
			"buffer":0,
			"byteLength":24,
			"byteOffset":2094700
		},
		{
			"buffer":0,
			"byteLength":24,
			"byteOffset":2094724
		},
		{
			"buffer":0,
			"byteLength":400,
			"byteOffset":2094748
		},
		{
			"buffer":0,
			"byteLength":24,
			"byteOffset":2095148
		},
		{
			"buffer":0,
			"byteLength":24,
			"byteOffset":2095172
		},
		{
			"buffer":0,
			"byteLength":400,
			"byteOffset":2095196
		},
		{
			"buffer":0,
			"byteLength":24,
			"byteOffset":2095596
		},
		{
			"buffer":0,
			"byteLength":24,
			"byteOffset":2095620
		},
		{
			"buffer":0,
			"byteLength":400,
			"byteOffset":2095644
		},
		{
			"buffer":0,
			"byteLength":24,
			"byteOffset":2096044
		},
		{
			"buffer":0,
			"byteLength":24,
			"byteOffset":2096068
		},
		{
			"buffer":0,
			"byteLength":400,
			"byteOffset":2096092
		},
		{
			"buffer":0,
			"byteLength":24,
			"byteOffset":2096492
		},
		{
			"buffer":0,
			"byteLength":24,
			"byteOffset":2096516
		},
		{
			"buffer":0,
			"byteLength":32,
			"byteOffset":2096540
		},
		{
			"buffer":0,
			"byteLength":24,
			"byteOffset":2096572
		},
		{
			"buffer":0,
			"byteLength":24,
			"byteOffset":2096596
		},
		{
			"buffer":0,
			"byteLength":32,
			"byteOffset":2096620
		},
		{
			"buffer":0,
			"byteLength":24,
			"byteOffset":2096652
		},
		{
			"buffer":0,
			"byteLength":24,
			"byteOffset":2096676
		},
		{
			"buffer":0,
			"byteLength":400,
			"byteOffset":2096700
		},
		{
			"buffer":0,
			"byteLength":24,
			"byteOffset":2097100
		},
		{
			"buffer":0,
			"byteLength":32,
			"byteOffset":2097124
		},
		{
			"buffer":0,
			"byteLength":24,
			"byteOffset":2097156
		},
		{
			"buffer":0,
			"byteLength":32,
			"byteOffset":2097180
		},
		{
			"buffer":0,
			"byteLength":24,
			"byteOffset":2097212
		},
		{
			"buffer":0,
			"byteLength":24,
			"byteOffset":2097236
		},
		{
			"buffer":0,
			"byteLength":400,
			"byteOffset":2097260
		},
		{
			"buffer":0,
			"byteLength":24,
			"byteOffset":2097660
		},
		{
			"buffer":0,
			"byteLength":24,
			"byteOffset":2097684
		},
		{
			"buffer":0,
			"byteLength":32,
			"byteOffset":2097708
		},
		{
			"buffer":0,
			"byteLength":24,
			"byteOffset":2097740
		},
		{
			"buffer":0,
			"byteLength":24,
			"byteOffset":2097764
		},
		{
			"buffer":0,
			"byteLength":32,
			"byteOffset":2097788
		},
		{
			"buffer":0,
			"byteLength":24,
			"byteOffset":2097820
		},
		{
			"buffer":0,
			"byteLength":24,
			"byteOffset":2097844
		},
		{
			"buffer":0,
			"byteLength":400,
			"byteOffset":2097868
		},
		{
			"buffer":0,
			"byteLength":24,
			"byteOffset":2098268
		},
		{
			"buffer":0,
			"byteLength":24,
			"byteOffset":2098292
		},
		{
			"buffer":0,
			"byteLength":32,
			"byteOffset":2098316
		},
		{
			"buffer":0,
			"byteLength":24,
			"byteOffset":2098348
		},
		{
			"buffer":0,
			"byteLength":24,
			"byteOffset":2098372
		},
		{
			"buffer":0,
			"byteLength":32,
			"byteOffset":2098396
		},
		{
			"buffer":0,
			"byteLength":24,
			"byteOffset":2098428
		},
		{
			"buffer":0,
			"byteLength":24,
			"byteOffset":2098452
		},
		{
			"buffer":0,
			"byteLength":400,
			"byteOffset":2098476
		},
		{
			"buffer":0,
			"byteLength":24,
			"byteOffset":2098876
		},
		{
			"buffer":0,
			"byteLength":24,
			"byteOffset":2098900
		},
		{
			"buffer":0,
			"byteLength":32,
			"byteOffset":2098924
		},
		{
			"buffer":0,
			"byteLength":24,
			"byteOffset":2098956
		},
		{
			"buffer":0,
			"byteLength":24,
			"byteOffset":2098980
		},
		{
			"buffer":0,
			"byteLength":32,
			"byteOffset":2099004
		},
		{
			"buffer":0,
			"byteLength":24,
			"byteOffset":2099036
		},
		{
			"buffer":0,
			"byteLength":24,
			"byteOffset":2099060
		},
		{
			"buffer":0,
			"byteLength":32,
			"byteOffset":2099084
		},
		{
			"buffer":0,
			"byteLength":24,
			"byteOffset":2099116
		},
		{
			"buffer":0,
			"byteLength":24,
			"byteOffset":2099140
		},
		{
			"buffer":0,
			"byteLength":400,
			"byteOffset":2099164
		},
		{
			"buffer":0,
			"byteLength":24,
			"byteOffset":2099564
		},
		{
			"buffer":0,
			"byteLength":24,
			"byteOffset":2099588
		},
		{
			"buffer":0,
			"byteLength":400,
			"byteOffset":2099612
		},
		{
			"buffer":0,
			"byteLength":24,
			"byteOffset":2100012
		},
		{
			"buffer":0,
			"byteLength":400,
			"byteOffset":2100036
		},
		{
			"buffer":0,
			"byteLength":24,
			"byteOffset":2100436
		},
		{
			"buffer":0,
			"byteLength":300,
			"byteOffset":2100460
		},
		{
			"buffer":0,
			"byteLength":400,
			"byteOffset":2100760
		},
		{
			"buffer":0,
			"byteLength":24,
			"byteOffset":2101160
		},
		{
			"buffer":0,
			"byteLength":400,
			"byteOffset":2101184
		},
		{
			"buffer":0,
			"byteLength":24,
			"byteOffset":2101584
		},
		{
			"buffer":0,
			"byteLength":400,
			"byteOffset":2101608
		},
		{
			"buffer":0,
			"byteLength":24,
			"byteOffset":2102008
		}
	],
	"samplers":[
		{
			"magFilter":9729,
			"minFilter":9987
		}
	],
	"buffers":[
		{
			"byteLength":2102032,
			"uri":"men%20run.bin"
		}
	]
}
